<?xml version="1.0" standalone="no"?>
<!DOCTYPE svg PUBLIC "-//W3C//DTD SVG 20010904//EN"
 "http://www.w3.org/TR/2001/REC-SVG-20010904/DTD/svg10.dtd">
<svg version="1.0" xmlns="http://www.w3.org/2000/svg"
 width="500.000000pt" height="500.000000pt" viewBox="0 0 500.000000 500.000000"
 preserveAspectRatio="xMidYMid meet">

<g transform="translate(0.000000,500.000000) scale(0.100000,-0.100000)"
fill="#000000" stroke="none">
<path d="M2297 3624 c-231 -42 -458 -164 -621 -335 -207 -216 -316 -483 -316
-773 0 -491 283 -906 736 -1080 148 -57 231 -69 438 -64 204 6 284 23 444 98
362 170 613 521 652 912 10 106 1 277 -20 368 -61 264 -218 503 -435 668 -76
58 -234 139 -332 171 -147 49 -385 64 -546 35z m474 -37 c366 -96 656 -361
778 -709 104 -299 86 -590 -54 -873 -64 -130 -127 -216 -228 -312 -237 -225
-545 -332 -875 -303 -258 23 -499 137 -686 324 -137 138 -242 321 -293 513
-23 88 -26 117 -27 278 0 164 2 189 26 277 100 367 380 665 735 783 134 44
213 55 378 51 120 -3 169 -8 246 -29z"/>
<path d="M2461 3453 c2 -45 2 -46 8 -13 l6 35 23 -32 c32 -45 42 -41 42 12 0
25 -4 45 -10 45 -5 0 -10 -12 -10 -27 l-1 -28 -22 28 c-13 15 -26 27 -30 27
-4 0 -6 -21 -6 -47z"/>
<path d="M2316 3448 c7 -46 11 -54 19 -46 9 8 -6 88 -16 88 -5 0 -6 -19 -3
-42z"/>
<path d="M2666 3460 c-11 -58 -8 -67 24 -72 36 -5 40 7 5 16 -30 8 -24 26 8
27 l22 0 -22 11 c-33 16 -28 32 7 25 17 -4 30 -2 30 3 0 6 -6 10 -12 10 -7 0
-22 3 -34 6 -18 5 -22 0 -28 -26z"/>
<path d="M2140 3444 c0 -4 5 -24 12 -45 11 -40 28 -48 58 -29 12 8 9 10 -12
10 -21 0 -28 6 -33 30 -6 26 -25 53 -25 34z"/>
<path d="M1972 3364 c-39 -27 -23 -84 23 -84 25 0 55 29 55 53 0 14 -35 47
-50 47 -3 0 -16 -7 -28 -16z m53 -34 c0 -18 -6 -26 -23 -28 -24 -4 -38 18 -28
44 3 9 15 14 28 12 17 -2 23 -10 23 -28z"/>
<path d="M2980 3351 c0 -11 5 -23 10 -26 15 -9 12 -25 -5 -25 -8 0 -15 5 -15
10 0 6 -4 10 -10 10 -19 0 -10 -21 15 -32 34 -16 56 3 37 32 -17 28 -16 46 3
30 17 -14 31 -8 20 9 -3 6 -17 11 -31 11 -17 0 -24 -5 -24 -19z"/>
<path d="M1799 3242 l-22 -19 28 -36 c16 -20 33 -33 37 -30 5 2 4 11 -3 19
-12 15 -5 18 36 15 19 -2 19 -1 3 12 -10 8 -18 21 -18 30 0 8 -7 18 -16 21
-21 8 -19 9 -45 -12z m45 -11 c9 -15 -23 -36 -36 -23 -5 5 -7 15 -4 21 9 13
33 14 40 2z"/>
<path d="M3130 3237 c-42 -19 -43 -21 -20 -27 14 -3 30 -17 37 -30 l12 -24 9
24 c30 80 26 86 -38 57z m32 -23 c-7 -12 -11 -13 -17 -4 -4 7 -2 16 6 21 18
11 23 4 11 -17z"/>
<path d="M3262 3101 l-32 -27 23 -22 c39 -37 87 -24 87 23 0 19 -28 56 -41 55
-2 -1 -19 -13 -37 -29z m58 -27 c0 -31 -26 -42 -48 -20 -16 16 -15 19 7 37 27
22 41 17 41 -17z"/>
<path d="M1660 3090 c0 -15 39 -90 46 -90 4 0 4 9 1 19 -5 20 15 44 43 53 9 3
-2 10 -25 17 -50 14 -65 14 -65 1z m48 -21 c-2 -6 -8 -10 -13 -10 -5 0 -11 4
-13 10 -2 6 4 11 13 11 9 0 15 -5 13 -11z"/>
<path d="M1554 2923 c-8 -32 6 -57 35 -61 30 -5 51 15 50 47 l-1 26 -10 -27
c-7 -20 -17 -28 -33 -28 -30 0 -40 28 -19 51 16 17 16 19 1 19 -10 0 -19 -11
-23 -27z"/>
<path d="M3363 2906 c18 -17 24 -31 20 -47 -4 -20 1 -17 31 16 19 22 35 43 36
48 0 4 -25 7 -56 7 l-57 0 26 -24z m55 3 c-2 -6 -8 -10 -13 -10 -5 0 -11 4
-13 10 -2 6 4 11 13 11 9 0 15 -5 13 -11z"/>
<path d="M2172 2810 c-111 -16 -211 -90 -255 -189 -28 -63 -35 -190 -13 -263
38 -132 147 -209 306 -216 84 -4 91 -3 146 27 68 37 82 38 86 9 2 -12 9 -23
16 -26 10 -3 12 22 10 114 -3 133 -18 159 -35 60 -14 -80 -43 -122 -100 -148
-128 -57 -216 41 -229 255 -10 155 30 293 95 331 100 58 219 -16 237 -147 12
-86 29 -48 32 71 3 113 -7 142 -28 86 -6 -14 -14 -24 -18 -22 -4 2 -32 15 -62
30 -64 31 -115 38 -188 28z"/>
<path d="M2805 2810 c-110 -16 -175 -80 -175 -172 0 -62 35 -115 110 -171 187
-137 226 -202 161 -268 -25 -25 -37 -29 -84 -29 -44 0 -61 5 -85 25 -34 29
-67 100 -76 168 -4 26 -11 47 -16 47 -9 0 -19 -258 -10 -266 2 -3 12 5 21 17
l16 22 57 -22 c111 -41 270 -22 335 41 39 38 51 66 51 118 0 83 -26 117 -174
226 -102 76 -136 113 -136 151 0 82 87 120 161 70 41 -28 76 -87 85 -144 4
-27 12 -43 20 -43 11 0 14 24 14 115 0 107 -10 143 -25 95 -8 -25 -25 -25 -73
-1 -46 22 -111 30 -177 21z"/>
<path d="M3218 1944 c-8 -8 33 -94 45 -94 5 0 7 6 4 13 -7 20 12 47 34 47 28
0 15 16 -18 23 -16 3 -35 8 -44 12 -8 3 -18 3 -21 -1z m41 -23 c8 -5 9 -11 3
-15 -5 -3 -15 1 -22 9 -14 16 -3 20 19 6z"/>
<path d="M1710 1890 l-35 -28 24 -26 c28 -29 44 -26 17 3 -19 21 -3 42 17 22
19 -19 31 -12 13 8 -10 11 -13 22 -8 25 5 3 15 -1 22 -9 21 -25 32 -17 13 10
-10 13 -20 24 -23 24 -3 0 -21 -13 -40 -29z"/>
<path d="M3100 1825 c1 -18 58 -80 66 -72 5 4 -9 24 -29 45 -20 20 -37 32 -37
27z"/>
<path d="M1846 1758 c-29 -38 -24 -55 6 -18 l21 25 -8 -32 c-7 -36 1 -41 36
-22 20 10 20 10 3 -16 -26 -40 -10 -40 20 0 33 43 26 61 -15 39 l-30 -15 7 35
c8 45 -6 47 -40 4z"/>
<path d="M2973 1728 c-13 -6 -23 -15 -23 -21 0 -5 10 -26 23 -46 21 -34 22
-34 25 -13 3 20 8 23 28 18 14 -4 24 -2 24 4 0 5 -4 10 -10 10 -5 0 -10 8 -10
18 0 17 -18 43 -29 41 -4 0 -16 -5 -28 -11z m37 -22 c0 -8 -5 -18 -11 -22 -14
-8 -33 11 -25 25 10 16 36 13 36 -3z"/>
<path d="M2038 1638 c-10 -23 -15 -44 -12 -47 4 -3 9 -1 11 6 3 8 15 10 33 7
21 -5 31 -1 38 13 12 22 6 35 -25 52 -29 15 -26 17 -45 -31z m50 10 c17 -17
15 -28 -6 -28 -24 0 -32 8 -25 26 6 17 15 18 31 2z"/>
<path d="M2797 1633 c-11 -10 -8 -93 3 -93 6 0 10 6 10 14 0 18 31 29 56 20
13 -5 8 5 -15 29 -36 38 -43 42 -54 30z m32 -27 c9 -10 8 -15 -4 -20 -10 -4
-15 1 -15 14 0 24 4 25 19 6z"/>
<path d="M2221 1574 c-13 -52 -13 -54 -2 -54 5 0 11 8 13 17 3 15 6 14 27 -7
13 -14 21 -18 19 -10 -3 8 2 23 10 33 20 23 7 48 -30 58 -24 6 -27 4 -37 -37z
m59 0 c0 -8 -9 -14 -20 -14 -13 0 -20 7 -20 19 0 14 5 18 20 14 11 -3 20 -12
20 -19z"/>
<path d="M2613 1593 c-23 -9 -15 -42 12 -49 33 -8 32 -24 -2 -24 -24 -1 -26
-2 -10 -11 9 -6 27 -7 38 -4 28 9 22 49 -8 53 -28 4 -30 22 -3 22 11 0 20 5
20 10 0 10 -26 12 -47 3z"/>
<path d="M2417 1583 c-4 -3 -7 -26 -7 -50 0 -43 0 -43 35 -43 19 0 35 5 35 10
0 6 -11 10 -25 10 -14 0 -25 5 -25 10 0 6 12 10 26 10 14 0 23 4 19 10 -3 6
-15 10 -26 10 -10 0 -19 5 -19 10 0 6 12 10 28 10 21 0 24 2 12 10 -17 11 -44
13 -53 3z"/>
</g>
</svg>
