<svg width="58" height="58" viewBox="0 0 58 58" fill="none" xmlns="http://www.w3.org/2000/svg">
<path d="M23.898 0.376381C18.0064 1.45058 12.2168 4.57087 8.0595 8.94438C2.78002 14.4688 0 21.2976 0 28.7147C0 41.2726 7.21785 51.8867 18.7715 56.3369C22.5462 57.7947 24.6631 58.1016 29.9426 57.9738C35.1456 57.8203 37.1859 57.3855 41.2667 55.4673C50.4994 51.1194 56.9011 42.1422 57.8958 32.1419C58.1509 29.4308 57.9213 25.0573 57.3857 22.7299C55.8299 15.9778 51.8257 9.86512 46.2911 5.64506C44.3528 4.16165 40.323 2.08998 37.8236 1.27155C34.0744 0.0183144 28.0042 -0.365326 23.898 0.376381ZM35.9872 1.3227C45.322 3.778 52.7183 10.5557 55.8299 19.4562C58.4824 27.1034 58.0233 34.5461 54.4527 41.7841C52.8204 45.109 51.2136 47.3085 48.6376 49.7638C42.5929 55.5185 34.7375 58.2551 26.3209 57.5134C19.7407 56.9251 13.594 54.0095 8.82465 49.2267C5.33049 45.6972 2.6525 41.0168 1.35175 36.1062C0.765143 33.8555 0.688629 33.1138 0.663124 28.996C0.663124 24.8016 0.714133 24.1622 1.32625 21.9115C3.87672 12.525 11.0181 4.90335 20.0722 1.88537C23.4899 0.760021 25.5048 0.478683 29.713 0.58099C32.7736 0.657719 34.0233 0.785599 35.9872 1.3227Z" fill="#fff"/>
<path d="M28.0807 4.74985C28.1317 5.90077 28.1317 5.92635 28.2847 5.08234L28.4378 4.18718L29.0244 5.00561C29.8405 6.15654 30.0956 6.05423 30.0956 4.6987C30.0956 4.0593 29.9935 3.54777 29.8405 3.54777C29.713 3.54777 29.5855 3.85469 29.5855 4.23833L29.56 4.95446L28.9989 4.23833C28.6673 3.85469 28.3357 3.54777 28.2337 3.54777C28.1317 3.54777 28.0807 4.08487 28.0807 4.74985Z" fill="#fff"/>
<path d="M24.3825 4.87776C24.5611 6.05426 24.6631 6.25887 24.8671 6.05426C25.0967 5.84965 24.7141 3.80356 24.459 3.80356C24.3315 3.80356 24.306 4.28951 24.3825 4.87776Z" fill="#fff"/>
<path d="M33.3092 4.57093C33.0287 6.05435 33.1052 6.28453 33.9213 6.41241C34.8395 6.54029 34.9415 6.23338 34.0489 6.00319C33.2837 5.79859 33.4367 5.33822 34.2529 5.31264H34.814L34.2529 5.0313C33.4112 4.62208 33.5388 4.21287 34.4314 4.3919C34.865 4.4942 35.1966 4.44305 35.1966 4.31517C35.1966 4.16172 35.0435 4.05941 34.8905 4.05941C34.712 4.05941 34.3294 3.98268 34.0234 3.90595C33.5643 3.77807 33.4623 3.90595 33.3092 4.57093Z" fill="#fff"/>
<path d="M19.8937 4.98011C19.8937 5.08242 20.0212 5.59394 20.1998 6.13104C20.4803 7.15408 20.9139 7.35869 21.679 6.87274C21.9851 6.66814 21.9086 6.61698 21.373 6.61698C20.8374 6.61698 20.6589 6.46353 20.5313 5.8497C20.3783 5.18472 19.8937 4.49417 19.8937 4.98011Z" fill="#fff"/>
<path d="M15.6089 7.02608C14.6142 7.71663 15.0223 9.17447 16.1955 9.17447C16.8331 9.17447 17.5983 8.43276 17.5983 7.81894C17.5983 7.46087 16.7056 6.61686 16.323 6.61686C16.2465 6.61686 15.9149 6.79589 15.6089 7.02608ZM16.9606 7.89566C16.9606 8.35603 16.8076 8.56064 16.374 8.61179C15.7619 8.7141 15.4049 8.15143 15.6599 7.48645C15.7364 7.25626 16.0425 7.12838 16.374 7.17953C16.8076 7.23069 16.9606 7.43529 16.9606 7.89566Z" fill="#fff"/>
<path d="M41.3177 7.35848C41.3177 7.63982 41.4452 7.94673 41.5728 8.02346C41.9553 8.25364 41.8788 8.66286 41.4452 8.66286C41.2412 8.66286 41.0627 8.53498 41.0627 8.4071C41.0627 8.25364 40.9607 8.15134 40.8076 8.15134C40.323 8.15134 40.5526 8.68844 41.1902 8.96977C42.0574 9.37899 42.6185 8.89304 42.1339 8.15134C41.7003 7.43521 41.7258 6.97484 42.2104 7.38405C42.644 7.74212 43.001 7.58866 42.7205 7.15387C42.644 7.00041 42.2869 6.87253 41.9298 6.87253C41.4963 6.87253 41.3177 7.00041 41.3177 7.35848Z" fill="#fff"/>
<path d="M11.1966 10.1465L10.6355 10.6324L11.3496 11.5532C11.7577 12.0647 12.1913 12.3972 12.2933 12.3205C12.4208 12.2693 12.3953 12.0391 12.2168 11.8345C11.9107 11.4509 12.0893 11.3741 13.135 11.4509C13.6196 11.502 13.6196 11.4765 13.2115 11.144C12.9564 10.9394 12.7524 10.6069 12.7524 10.3767C12.7524 10.1721 12.5739 9.91631 12.3443 9.83958C11.8087 9.63497 11.8597 9.6094 11.1966 10.1465ZM12.3443 10.4278C12.5739 10.8115 11.7577 11.3486 11.4261 11.0161C11.2986 10.8882 11.2476 10.6324 11.3241 10.479C11.5537 10.1465 12.1658 10.1209 12.3443 10.4278Z" fill="#fff"/>
<path d="M45.1435 10.2743C44.0723 10.7603 44.0468 10.8114 44.6334 10.9649C44.9905 11.0416 45.3985 11.3997 45.5771 11.7322L45.8831 12.346L46.1127 11.7322C46.8778 9.68609 46.7758 9.53264 45.1435 10.2743ZM45.9596 10.8626C45.7811 11.1695 45.6791 11.1951 45.5261 10.9649C45.424 10.7859 45.4751 10.5557 45.6791 10.4278C46.1382 10.1465 46.2657 10.3255 45.9596 10.8626Z" fill="#fff"/>
<path d="M48.51 13.7527L47.6938 14.4433L48.2805 15.006C49.2751 15.9523 50.4994 15.6198 50.4994 14.4177C50.4994 13.9318 49.7852 12.9854 49.4537 13.011C49.4027 13.0366 48.9691 13.3435 48.51 13.7527ZM49.9893 14.4433C49.9893 15.2361 49.3262 15.5175 48.765 14.9548C48.357 14.5456 48.3825 14.4689 48.9436 14.0085C49.6322 13.4458 49.9893 13.5737 49.9893 14.4433Z" fill="#fff"/>
<path d="M7.65143 14.0341C7.65143 14.4177 8.64611 16.3359 8.82465 16.3359C8.92667 16.3359 8.92667 16.1058 8.85015 15.85C8.72263 15.3385 9.23272 14.7246 9.94686 14.4945C10.1764 14.4177 9.89585 14.2387 9.30924 14.0597C8.034 13.7016 7.65143 13.7016 7.65143 14.0341ZM8.87566 14.5712C8.82465 14.7246 8.67162 14.8269 8.54409 14.8269C8.41657 14.8269 8.26354 14.7246 8.21253 14.5712C8.16152 14.4177 8.31455 14.2898 8.54409 14.2898C8.77364 14.2898 8.92667 14.4177 8.87566 14.5712Z" fill="#fff"/>
<path d="M4.94788 18.3052C4.74384 19.1237 5.10091 19.7631 5.84055 19.8654C6.60569 19.9932 7.14129 19.4817 7.11579 18.6633L7.09028 17.9983L6.83523 18.6889C6.6567 19.2004 6.40165 19.405 5.99358 19.405C5.22843 19.405 4.97339 18.6889 5.50899 18.1006C5.91706 17.6658 5.91706 17.6147 5.53449 17.6147C5.27944 17.6147 5.0499 17.896 4.94788 18.3052Z" fill="#fff"/>
<path d="M51.0861 18.74C51.5452 19.1747 51.6982 19.5328 51.5962 19.942C51.4941 20.4535 51.6217 20.3768 52.3868 19.5328C52.8714 18.9701 53.2795 18.433 53.305 18.3052C53.305 18.2029 52.6674 18.1261 51.8767 18.1261H50.4229L51.0861 18.74ZM52.4888 18.6632C52.4378 18.8167 52.2848 18.919 52.1573 18.919C52.0297 18.919 51.8767 18.8167 51.8257 18.6632C51.7747 18.5098 51.9277 18.3819 52.1573 18.3819C52.3868 18.3819 52.5398 18.5098 52.4888 18.6632Z" fill="#fff"/>
<path d="M20.7099 21.1952C17.8788 21.6044 15.3283 23.4971 14.2061 26.0291C13.492 27.6404 13.3135 30.8886 13.8746 32.7556C14.8438 36.1317 17.6238 38.101 21.679 38.2801C23.8214 38.3824 24 38.3568 25.4027 37.5895C27.1371 36.6432 27.4941 36.6176 27.5961 37.3593C27.6471 37.6662 27.8257 37.9476 28.0042 38.0243C28.2593 38.101 28.3103 37.4616 28.2593 35.1086C28.1827 31.707 27.8002 31.042 27.3666 33.574C27.0095 35.6201 26.2699 36.6943 24.8161 37.3593C21.5515 38.8172 19.3071 36.3107 18.9755 30.8374C18.7205 26.8731 19.7407 23.3436 21.3985 22.3717C23.949 20.8883 26.984 22.7809 27.4431 26.1314C27.7492 28.3309 28.1827 27.3591 28.2593 24.3155C28.3358 21.4254 28.0807 20.6837 27.5451 22.116C27.3921 22.474 27.1881 22.7298 27.086 22.6786C26.984 22.6275 26.2699 22.295 25.5047 21.9113C23.8724 21.1185 22.5717 20.9395 20.7099 21.1952Z" fill="#fff"/>
<path d="M36.8543 21.1955C34.0488 21.6047 32.391 23.2416 32.391 25.5946C32.391 27.1803 33.2837 28.5358 35.1965 29.9681C39.9659 33.472 40.9606 35.1345 39.3028 36.8225C38.6652 37.4619 38.3591 37.5642 37.1604 37.5642C36.0382 37.5642 35.6046 37.4363 34.9925 36.9248C34.1253 36.1831 33.2837 34.3672 33.0541 32.628C32.9521 31.963 32.7736 31.4259 32.6461 31.4259C32.4165 31.4259 32.1615 38.0246 32.391 38.2292C32.442 38.3059 32.6971 38.1013 32.9266 37.7944L33.3347 37.2317L34.7885 37.7944C37.6195 38.843 41.6747 38.357 43.3326 36.7457C44.3272 35.7739 44.6333 35.0577 44.6333 33.7278C44.6333 31.6049 43.9702 30.7354 40.1955 27.9476C37.594 26.0038 36.7268 25.0575 36.7268 24.0856C36.7268 21.9883 38.9457 21.0164 40.8331 22.2952C41.8788 23.0114 42.7714 24.5204 43.001 25.9782C43.103 26.6688 43.307 27.078 43.5111 27.078C43.7916 27.078 43.8682 26.4642 43.8682 24.1367C43.8682 21.4001 43.6131 20.4793 43.2305 21.707C43.0265 22.3464 42.5929 22.3464 41.3687 21.7326C40.1955 21.1699 38.5377 20.9653 36.8543 21.1955Z" fill="#fff"/>
<path d="M47.3878 43.3441C47.1838 43.5487 48.2294 45.7483 48.5355 45.7483C48.663 45.7483 48.714 45.5948 48.6375 45.4158C48.459 44.9043 48.9436 44.2137 49.5047 44.2137C50.2188 44.2137 49.8873 43.8045 49.0456 43.6255C48.6375 43.5487 48.1529 43.4209 47.9234 43.3186C47.7194 43.2418 47.4643 43.2418 47.3878 43.3441ZM48.4335 43.9324C48.6375 44.0603 48.663 44.2137 48.51 44.316C48.3825 44.3928 48.1274 44.2905 47.9489 44.0858C47.5918 43.6766 47.8724 43.5743 48.4335 43.9324Z" fill="#fff"/>
<path d="M8.92666 44.7255L8.034 45.4416L8.64611 46.1066C9.36024 46.8483 9.76832 46.7716 9.07969 46.0299C8.5951 45.4928 9.00318 44.9557 9.51327 45.4672C9.99786 45.9531 10.3039 45.7741 9.84483 45.2626C9.58979 44.9813 9.51327 44.6999 9.6408 44.6232C9.76832 44.5465 10.0234 44.6488 10.2019 44.8534C10.7375 45.4928 11.0181 45.2882 10.5335 44.5976C10.2784 44.2651 10.0234 43.9838 9.94685 43.9838C9.87034 43.9838 9.41125 44.3163 8.92666 44.7255Z" fill="#fff"/>
<path d="M44.3783 46.3877C44.4038 46.8481 45.8576 48.4338 46.0616 48.2292C46.1891 48.1269 45.8321 47.6153 45.322 47.0782C44.8119 46.5667 44.3783 46.2598 44.3783 46.3877Z" fill="#fff"/>
<path d="M12.3954 48.1015C11.6557 49.0734 11.7833 49.5082 12.5484 48.5619L13.084 47.9225L12.88 48.7409C12.7014 49.6616 12.9055 49.7895 13.7981 49.3036C14.3082 49.0478 14.3082 49.0478 13.8746 49.7128C13.2115 50.7358 13.6196 50.7358 14.3847 49.7128C15.2264 48.613 15.0479 48.1526 14.0022 48.7153L13.237 49.099L13.4156 48.2038C13.6196 47.0529 13.2625 47.0017 12.3954 48.1015Z" fill="#fff"/>
<path d="M41.1392 48.8688C40.8076 49.0223 40.5526 49.2525 40.5526 49.4059C40.5526 49.5338 40.8076 50.0709 41.1392 50.5824C41.6748 51.452 41.7003 51.452 41.7768 50.9149C41.8533 50.4034 41.9808 50.3266 42.4909 50.4545C42.848 50.5568 43.1031 50.5057 43.1031 50.3522C43.1031 50.2243 43.001 50.0965 42.848 50.0965C42.7205 50.0965 42.593 49.8919 42.593 49.6361C42.593 49.2013 42.1339 48.5363 41.8533 48.5875C41.7513 48.5875 41.4452 48.7154 41.1392 48.8688ZM42.0829 49.4315C42.0829 49.6361 41.9553 49.8919 41.8023 49.9942C41.4452 50.1988 40.9607 49.7128 41.1647 49.3548C41.4197 48.9455 42.0829 49.0223 42.0829 49.4315Z" fill="#fff"/>
<path d="M17.2923 51.1705C17.0372 51.7588 16.9097 52.2959 16.9862 52.3726C17.0882 52.4493 17.2158 52.3982 17.2668 52.2192C17.3433 52.0145 17.6493 51.9634 18.1084 52.0401C18.644 52.168 18.8991 52.0657 19.0776 51.7076C19.3837 51.145 19.2306 50.8125 18.44 50.3777C17.7004 49.994 17.7769 49.9429 17.2923 51.1705ZM18.5675 50.9148C19.0011 51.3496 18.9501 51.6309 18.4145 51.6309C17.8024 51.6309 17.5983 51.4263 17.7769 50.9659C17.9299 50.5311 18.1594 50.5056 18.5675 50.9148Z" fill="#fff"/>
<path d="M36.6503 51.2982C36.3698 51.554 36.4463 53.6768 36.7268 53.6768C36.8799 53.6768 36.9819 53.5234 36.9819 53.3188C36.9819 52.8584 37.7725 52.577 38.4102 52.8072C38.7417 52.9351 38.6142 52.6794 38.0276 52.0655C37.1094 51.0936 36.9309 50.9913 36.6503 51.2982ZM37.4665 51.9888C37.696 52.2446 37.6705 52.3724 37.3645 52.5003C37.1094 52.6026 36.9819 52.4747 36.9819 52.1423C36.9819 51.5284 37.0839 51.5029 37.4665 51.9888Z" fill="#fff"/>
<path d="M21.9596 52.8073C21.628 54.1372 21.628 54.1884 21.9086 54.1884C22.0361 54.1884 22.1891 53.9838 22.2401 53.7536C22.3166 53.3699 22.3932 53.3955 22.9288 53.9326C23.2603 54.2907 23.4644 54.393 23.4133 54.1884C23.3368 53.9838 23.4644 53.6001 23.6684 53.3444C24.1785 52.7561 23.8469 52.1167 22.9033 51.861C22.2911 51.7075 22.2146 51.7587 21.9596 52.8073ZM23.4644 52.8073C23.4644 53.0119 23.2348 53.1653 22.9543 53.1653C22.6227 53.1653 22.4442 52.9863 22.4442 52.6794C22.4442 52.3213 22.5717 52.219 22.9543 52.3213C23.2348 52.3981 23.4644 52.6282 23.4644 52.8073Z" fill="#fff"/>
<path d="M31.9575 52.3215C31.3709 52.5517 31.5749 53.3957 32.2635 53.5748C33.1052 53.7794 33.0797 54.1886 32.2125 54.1886C31.6004 54.2142 31.5494 54.2397 31.9575 54.4699C32.187 54.6234 32.6461 54.649 32.9267 54.5722C33.6408 54.3421 33.4878 53.319 32.7226 53.2167C32.0085 53.1144 31.9575 52.654 32.6461 52.654C32.9267 52.654 33.1562 52.5262 33.1562 52.3983C33.1562 52.1425 32.4931 52.0914 31.9575 52.3215Z" fill="#fff"/>
<path d="M26.9585 52.5771C26.8565 52.6538 26.78 53.2421 26.78 53.8559C26.78 54.9557 26.78 54.9557 27.6727 54.9557C28.1573 54.9557 28.5653 54.8278 28.5653 54.6999C28.5653 54.5465 28.2848 54.4442 27.9277 54.4442C27.5706 54.4442 27.2901 54.3163 27.2901 54.1884C27.2901 54.0349 27.5962 53.9326 27.9532 53.9326C28.3103 53.9326 28.5398 53.8303 28.4378 53.6769C28.3613 53.5234 28.0552 53.4211 27.7747 53.4211C27.5196 53.4211 27.2901 53.2932 27.2901 53.1654C27.2901 53.0119 27.5962 52.9096 28.0042 52.9096C28.5398 52.9096 28.6163 52.8584 28.3103 52.6538C27.8767 52.3725 27.1881 52.3213 26.9585 52.5771Z" fill="#fff"/>
</svg>
